#!OML:ASF G:\JayActor3\Patient Classification 1\Patient 1\Session 5\male.ASF
:FULLY-SPECIFIED
:DEGREES
861
root -10.4794 15.5564 -6.13347 408.845 -90.9998 -396.333
lowerback 34.8227 -0.391883 1.61768
upperback 8.40878 -1.0389 -1.2758
thorax -8.37112 -0.874281 -1.76114
lowerneck 1.97042 0.192401 1.57027
upperneck -21.9085 0.0926273 1.42984
head -7.00308 -0.485989 0.226653
rclavicle -2.52457e-014 -3.53837e-014
rhumerus -29.4702 1.12541 -87.6321
rradius 40.7617
rwrist -0.945346
rhand -19.8395 -8.58074
rfingers 7.12502
rthumb 6.49476 -38.4612
lclavicle -2.52457e-014 -3.53837e-014
lhumerus -28.3314 -3.68004 82.4243
lradius 41.7613
lwrist 25.6427
lhand -18.4793 11.099
lfingers 7.12502
lthumb 7.80776 40.9349
rfemur -49.5775 -4.20794 19.6621
rtibia 92.2582
rfoot 31.5871 -7.84453
rtoes -2.72951
lfemur -68.0836 14.2588 -33.4947
ltibia 73.542
lfoot 12.9419 -6.10599
ltoes -32.5345
862
root -10.5882 15.556 -6.13391 413.533 -90.976 -401.053
lowerback 34.9044 -0.402188 1.61672
upperback 8.42226 -1.05108 -1.24885
thorax -8.38581 -0.881238 -1.7266
lowerneck 1.95939 0.175334 1.57795
upperneck -21.9551 0.0674879 1.43307
head -7.01636 -0.501121 0.228433
rclavicle -6.95746e-016 -6.06293e-015
rhumerus -29.3967 1.15046 -87.6489
rradius 40.8525
rwrist -0.976857
rhand -20.094 -8.55865
rfingers 7.12502
rthumb 6.24909 -38.4465
lclavicle -6.95746e-016 -6.06293e-015
lhumerus -28.2877 -3.84886 82.5003
lradius 41.8682
lwrist 25.6172
lhand -18.4289 11.1634
lfingers 7.12502
lthumb 7.85634 40.9975
rfemur -50.4953 -4.18495 19.6064
rtibia 92.9206
rfoot 30.2481 -7.42297
rtoes -3.44344
lfemur -67.9248 14.4084 -33.5159
ltibia 73.9711
lfoot 12.8784 -6.06933
ltoes -32.3075
863
root -10.6958 15.5556 -6.13437 416.582 -90.9539 -404.126
lowerback 34.9679 -0.414075 1.63832
upperback 8.43808 -1.05767 -1.22195
thorax -8.39115 -0.885718 -1.70642
lowerneck 1.95708 0.166155 1.57974
upperneck -21.9998 0.0519229 1.42788
head -7.03054 -0.510189 0.227831
rclavicle -1.2921e-015 -1.88845e-015
rhumerus -29.316 1.20114 -87.6765
rradius 40.9275
rwrist -1.00999
rhand -20.3298 -8.53117
rfingers 7.12502
rthumb 6.02139 -38.4256
lclavicle -1.2921e-015 -1.88845e-015
lhumerus -28.2484 -3.98104 82.5635
lradius 41.9512
lwrist 25.5791
lhand -18.398 11.226
lfingers 7.12502
lthumb 7.88617 41.0589
rfemur -51.469 -4.14819 19.5905
rtibia 93.5525
rfoot 28.6143 -6.90031
rtoes -4.39174
lfemur -67.772 14.5849 -33.5316
ltibia 74.3931
lfoot 12.7808 -6.00357
ltoes -32.1317
864
root -10.803 15.5555 -6.13473 418.608 -90.9292 -406.168
lowerback 35.0059 -0.433351 1.67623
upperback 8.45613 -1.06809 -1.19789
thorax -8.38507 -0.891897 -1.6968
lowerneck 1.96853 0.166522 1.58463
upperneck -22.0401 0.0482308 1.40831
head -7.04571 -0.51217 0.221226
rclavicle 8.15017e-015 1.31198e-014
rhumerus -29.2331 1.27751 -87.7187
rradius 40.9931
rwrist -1.04509
rhand -20.5083 -8.50223
rfingers 7.12502
rthumb 5.84906 -38.4015
lclavicle 8.15017e-015 1.31198e-014
lhumerus -28.2226 -4.06273 82.607
lradius 42.0145
lwrist 25.5372
lhand -18.3768 11.2771
lfingers 7.12502
lthumb 7.90669 41.1093
rfemur -52.4853 -4.11172 19.6004
rtibia 94.1558
rfoot 26.6558 -6.28718
rtoes -5.44035
lfemur -67.608 14.7755 -33.5418
ltibia 74.8029
lfoot 12.649 -5.89695
ltoes -31.95
865
root -10.9105 15.5564 -6.13496 420.336 -90.9089 -407.909
lowerback 35.023 -0.4593 1.71952
upperback 8.47762 -1.08555 -1.17791
thorax -8.36802 -0.901221 -1.69201
lowerneck 1.97792 0.171815 1.58802
upperneck -22.0688 0.0503326 1.3824
head -7.05669 -0.510268 0.212337
rclavicle 1.00386e-014 6.26172e-015
rhumerus -29.1498 1.37036 -87.7684
rradius 41.0578
rwrist -1.08319
rhand -20.6108 -8.47937
rfingers 7.12502
rthumb 5.7501 -38.3813
lclavicle 1.00386e-014 6.26172e-015
lhumerus -28.2102 -4.10379 82.6351
lradius 42.0591
lwrist 25.4951
lhand -18.3694 11.3045
lfingers 7.12502
lthumb 7.91382 41.1363
rfemur -53.5306 -4.08187 19.6151
rtibia 94.7248
rfoot 24.4413 -5.57638
rtoes -6.62466
lfemur -67.4193 14.9714 -33.5588
ltibia 75.1911
lfoot 12.4913 -5.75338
ltoes -31.7759
866
root -11.0176 15.5579 -6.13528 422.025 -90.8964 -409.602
lowerback 35.0206 -0.489504 1.75913
upperback 8.49491 -1.10931 -1.16227
thorax -8.34885 -0.913055 -1.68773
lowerneck 2.00364 0.180399 1.59454
upperneck -22.0927 0.0569839 1.34902
head -7.06898 -0.505387 0.200154
rclavicle 5.46658e-015 -4.67144e-015
rhumerus -29.0801 1.46742 -87.8223
rradius 41.1293
rwrist -1.13166
rhand -20.6247 -8.47033
rfingers 7.12502
rthumb 5.73672 -38.3727
lclavicle 5.46658e-015 -4.67144e-015
lhumerus -28.2227 -4.11352 82.6507
lradius 42.0926
lwrist 25.4774
lhand -18.3767 11.315
lfingers 7.12502
lthumb 7.90677 41.1472
rfemur -54.6182 -4.05367 19.6253
rtibia 95.2522
rfoot 22.0507 -4.82708
rtoes -7.88786
lfemur -67.2179 15.1631 -33.5838
ltibia 75.5585
lfoot 12.326 -5.56853
ltoes -31.5745
867
root -11.1238 15.5599 -6.13511 424.268 -90.886 -411.847
lowerback 35.0191 -0.532862 1.80232
upperback 8.50861 -1.14833 -1.15191
thorax -8.33482 -0.931834 -1.68519
lowerneck 2.02525 0.193632 1.6042
upperneck -22.1066 0.0700304 1.31348
head -7.07728 -0.497194 0.186231
rclavicle -2.67365e-014 -2.37548e-014
rhumerus -29.0202 1.56404 -87.8791
rradius 41.2124
rwrist -1.1949
rhand -20.5597 -8.46994
rfingers 7.12502
rthumb 5.79948 -38.3706
lclavicle -2.67365e-014 -2.37548e-014
lhumerus -28.2546 -4.09539 82.6529
lradius 42.1204
lwrist 25.477
lhand -18.3931 11.3099
lfingers 7.12502
lthumb 7.89094 41.1426
rfemur -55.7359 -4.03409 19.6255
rtibia 95.7197
rfoot 19.6462 -4.09988
rtoes -9.13282
lfemur -67.0042 15.3411 -33.6224
ltibia 75.9018
lfoot 12.1589 -5.3746
ltoes -31.4509
